<!DOCTYPE svg PUBLIC "-//W3C//DTD SVG 20010904//EN" "http://www.w3.org/TR/2001/REC-SVG-20010904/DTD/svg10.dtd">
<svg version="1.0" xmlns="http://www.w3.org/2000/svg" width="282px" height="153px" viewBox="0 0 2820 1530" preserveAspectRatio="xMidYMid meet">
<g id="layer101" fill="#02adf0" fill-rule="evenodd">
<path d="M1307 1509 C1061 1479,861 1338,764 1127 C711 1010,695 834,728 710 L745 645 845 592 C900 564,949 540,955 540 C961 540,954 576,938 624 C814 993,1023 1353,1379 1386 C1520 1399,1764 1332,1982 1221 C2126 1148,2379 993,2420 954 C2476 898,2443 810,2314 671 C2254 606,2128 498,2070 462 C2050 450,2041 440,2050 440 C2059 440,2070 443,2075 448 C2080 452,2107 464,2135 474 C2222 506,2381 590,2475 653 C2559 711,2740 877,2740 897 C2740 909,2559 1030,2390 1132 C2005 1363,1701 1485,1435 1515 C1410 1517,1352 1515,1307 1509 " />
</g>
<g id="layer102" fill="#124ba1" fill-rule="evenodd">
<path d="M622 1246 C490 1186,366 1115,270 1044 C205 996,60 855,60 839 C60 816,488 551,685 452 C826 381,808 389,1142 251 C1314 180,1453 112,1522 65 C1568 35,1563 52,1510 113 C1482 145,1460 172,1460 175 C1460 184,1706 67,1724 49 C1729 44,1738 39,1744 39 C1757 40,1689 110,1616 171 C1585 198,1561 220,1563 220 C1575 219,1742 144,1808 109 C1849 87,1885 69,1888 70 C1901 70,1761 198,1711 232 L1659 267 1702 284 C1874 353,2031 540,2074 730 C2091 803,2089 982,2071 1040 C2061 1072,2048 1082,1961 1128 C1906 1156,1857 1180,1851 1180 C1845 1180,1847 1160,1859 1127 C1995 730,1759 355,1375 357 C1162 358,882 463,560 661 C344 795,325 822,374 917 C419 1006,584 1176,707 1261 C746 1288,757 1300,745 1300 C742 1300,687 1275,622 1246 " />
<path d="M1310 1186 C1210 1151,1142 1092,1092 997 C1068 951,1065 933,1065 850 C1065 765,1068 748,1093 700 C1108 669,1130 634,1142 622 L1162 600 1185 648 C1257 803,1479 807,1555 655 C1568 628,1580 593,1580 578 C1580 562,1583 550,1588 550 C1612 550,1692 637,1719 693 C1809 876,1731 1089,1546 1169 C1485 1196,1363 1204,1310 1186 " />
</g>

</svg>